<svg xmlns="http://www.w3.org/2000/svg" width="263" height="263" xmlns:v="https://vecta.io/nano"><defs><clipPath id="A"><path transform="translate(.425 .425)" fill="#fff" stroke="#707070" stroke-width="1" d="M0 0h168v167H0z"/></clipPath></defs><circle cx="131.5" cy="131.5" r="131.5" fill="#91d0d7" opacity=".346"/><g transform="translate(47.575 47.575)" clip-path="url(#A)"><path d="M39.085 99.056l-7.407-7.869v-22.53c-.926-5.71-5.092-11.265-10.8-11.265h-3.86l.463 40.738 5.555 9.413c6.105-1.082 11.718-4.05 16.049-8.487z" fill="#fff"/><path d="M21.339 110.784l-7.1-11.882-.463-44.751h6.944c7.561 0 12.654 6.944 13.888 13.888v21.913l8.641 9.1-2.006 2.16a31.95 31.95 0 0 1-17.9 9.259zm-.926-13.579l4.012 6.79c3.737-.904 7.22-2.645 10.185-5.092l-6.173-6.481V68.811c-.772-4.166-3.7-8.487-7.716-8.487h-.772z" fill="#02484a"/><path d="M34.301 137.789L3.439 86.094l-.463-40.738h3.858c5.71 0 9.876 5.555 10.8 11.265v22.53l8.487 8.95 24.227 24.227 2.16-2.16-14.966-14.969c-3.7-4.012-2.469-11.265 1.543-14.968l1.08-.926 26.7 26.7 1.234 19.443v30.4" fill="#fff"/><path d="M71.182 155.843h-6.173v-30.245l-1.08-18.209-23.763-23.764a9.56 9.56 0 0 0-1.7 5.092 6.6 6.6 0 0 0 1.389 4.321l17.129 17.129-6.635 6.635-26.386-26.387-9.413-9.876v-23.61c-.772-4.166-3.7-8.487-7.716-8.487h-.772l.463 36.881 30.4 50.923-5.247 3.086L.509 86.866.046 42.115h7.1c7.561 0 12.654 6.944 13.888 13.888v21.758l7.561 8.024 3.858 3.858v-1.234a15.22 15.22 0 0 1 4.784-10.648l3.391-2.782 29.628 29.628 1.235 20.832v30.4z" fill="#02484a"/><path d="M79.05 163.404v-18.98h-53.7v18.98" fill="#91d0d7"/><path d="M82.138 163.25h-6.173v-15.74H28.437v15.74h-6.172v-21.912h59.873z" fill="#02484a"/><path d="M129.203 99.056l7.407-7.87V68.657c.926-5.71 5.092-11.265 10.8-11.265h3.858l-.463 40.738-5.554 9.413c-6.105-1.082-11.717-4.05-16.048-8.487z" fill="#fff"/><path d="M146.949 110.784l-2.006-.309a31.95 31.95 0 0 1-17.9-9.259l-2.006-2.16 8.641-9.1V68.04c1.08-6.944 6.173-13.888 13.888-13.888h7.1l-.463 44.751zm-13.425-11.882c2.965 2.447 6.448 4.188 10.185 5.092l4.012-6.79.463-36.881h-.772c-4.012 0-6.944 4.321-7.716 8.487v23.61z" fill="#02484a"/><path d="M133.986 137.789l30.708-51.695.463-40.738h-3.858c-5.71 0-9.876 5.555-10.8 11.265v22.53l-8.487 8.95-24.227 24.227-2.16-2.16L130.593 95.2c3.7-4.012 2.469-11.265-1.543-14.968l-1.08-.926-26.542 26.7-1.236 19.438v30.4" fill="#fff"/><path d="M103.279 155.843h-6.173V125.29l1.389-20.678 29.473-29.633 3.395 2.778c2.888 2.814 4.598 6.62 4.784 10.648v1.234l3.858-3.858 7.561-8.024V56.003c1.08-6.944 6.327-13.888 13.888-13.888h7.1l-.463 44.751-31.325 52.466-5.247-3.086 30.4-50.923.463-36.726h-.776c-4.012 0-6.944 4.321-7.716 8.487v23.455l-9.259 9.876-26.387 26.542-6.481-6.635 17.283-17.129a5.91 5.91 0 0 0 1.389-4.166 9.56 9.56 0 0 0-1.7-5.092l-23.759 23.763-1.234 18.209v29.937z" fill="#02484a"/><path d="M89.236 163.404v-18.98h53.857v18.98" fill="#91d0d7"/><path d="M146.178 163.25h-6.172v-15.74H92.323v15.74H86.15v-21.912h60.027z" fill="#02484a"/><path d="M84.608 76.835a34.8 34.8 0 0 1-24.742-59.352 34.8 34.8 0 0 1 59.462 24.477v.154c-.029 19.164-15.556 34.692-34.72 34.721z" fill="#91d0d7"/><g fill="#02484a"><path d="M84.453 79.921c-20.896-.021-37.854-16.91-37.961-37.806a37.93 37.93 0 0 1 11.111-26.85 37.94 37.94 0 0 1 26.85-11.111h0c13.581-.07 26.16 7.135 32.971 18.885s6.811 26.246 0 37.996S98.034 79.99 84.453 79.92zm.154-6.172h0c17.514-.043 31.677-14.274 31.634-31.788s-14.274-31.677-31.788-31.634h0c-17.514.043-31.677 14.274-31.634 31.788s14.274 31.677 31.788 31.634zM64.392 57.238V33.165l-4.32 3.395v-4.938l4.32-3.549h4.321v29.165zm6.945 0v-3.7l7.253-14.2a10.05 10.05 0 0 0 1.08-5.247c0-1.7-.926-2.623-2.16-2.623a2.11 2.11 0 0 0-2.16 2.16v2.16h-4.322v-1.389a5.59 5.59 0 0 1 1.852-4.784c1.337-1.126 3.036-1.73 4.784-1.7 1.641-.131 3.263.428 4.475 1.543a6.86 6.86 0 0 1 2.006 5.092c-.053 2.245-.579 4.453-1.543 6.481l-6.636 12.657h8.179v3.858zm19.134-14.197c-2.672.175-4.998-1.809-5.247-4.475v-5.862a5.21 5.21 0 0 1 1.743-3.634c1.045-.929 2.418-1.399 3.813-1.306a5.31 5.31 0 0 1 4.938 4.94v5.4c.07 2.636-1.994 4.838-4.629 4.938zm1.7-10.339c0-1.234-.617-1.852-1.7-1.852s-1.7.617-1.7 1.852v5.247a1.56 1.56 0 0 0 1.237 1.855h.463c.482.013.946-.183 1.272-.538s.482-.834.428-1.314v-5.248zM95.1 57.238h-3.394l10.184-29.165h3.395zm11.265.309a4.94 4.94 0 0 1-5.247-4.321v-5.864a5.08 5.08 0 0 1 5.555-4.784c2.567.174 4.61 2.217 4.784 4.784v5.4c.07 2.636-1.994 4.838-4.629 4.938a.57.57 0 0 1-.463-.153zm1.543-10.185c0-1.235-.617-1.852-1.7-1.852s-1.7.617-1.7 1.852v5.242c0 1.235.617 1.852 1.7 1.852s1.7-.617 1.7-1.852z"/></g></g></svg>